<?xml version="1.0" encoding="utf-8"?>
<!-- Generator: Adobe Illustrator 17.1.0, SVG Export Plug-In . SVG Version: 6.00 Build 0)  -->
<!DOCTYPE svg PUBLIC "-//W3C//DTD SVG 1.1//EN" "http://www.w3.org/Graphics/SVG/1.1/DTD/svg11.dtd">
<svg version="1.1" id="图层_1" xmlns="http://www.w3.org/2000/svg" xmlns:xlink="http://www.w3.org/1999/xlink" x="0px" y="0px"
	 viewBox="0 0 976.1 243.2" enable-background="new 0 0 976.1 243.2" xml:space="preserve">
<g>
	<defs>
		<path id="SVGID_1_" d="M912.5,66.7h44.9c3.9,0,6,4.6,3.4,7.5l-61.2,69.4c2.8,6.2,5.6,12.4,8.5,18.6c8.5,18.6,17,37.2,25.5,55.8
			c2.7,5.8,1,8.5-5.3,8.5c-14.5,0-29,0-43.5,0c-6.7,0-7.8-0.7-10.3-7c-7.2-18.7-14.4-37.4-21.6-56c-0.5-1.4-1.1-2.7-2-4.7
			c-3.2,18.1-6.2,35.4-9.2,52.7c-0.5,2.9-1,5.9-1.6,8.8c-0.8,3.9-3.7,6.2-7.7,6.2c-13,0-26,0-39,0c-4.7,0-6.8-2.5-6-7.2
			c5.5-31.6,11.1-63.2,16.7-94.8c5.8-33.3,11.7-66.6,17.4-99.8c0.1-0.7,0.2-1.3,0.4-2c1.1-5,5.5-8.5,10.6-8.5l37.2,0
			c3.4,0,6.1,2.9,5.8,6.2c0,0.5-0.1,1-0.2,1.5l-19.9,109.7l50.6-61.8C907.5,67.8,909.9,66.7,912.5,66.7z M748.7,226.4
			c5.5,0,8-2.2,9-7.4c4.2-23.6,8.5-47.1,12.5-70.7c2.1-12.2,5-24.2,4.8-36.7c-0.5-22.7-13.1-39-35.3-44.1c-21-4.9-42.2-4.1-63.2,0.3
			c-11.9,2.5-22.1,8.3-29.9,17.9c-7.5,9.4-11.9,20.2-14.1,31.8c-4.3,22.2-8.1,44.4-12,66.6c-2.1,11.7-4.2,23.3-6,35
			c-0.9,5.5,0.9,7.3,6.5,7.3c12.6,0,25.2,0,37.9,0c4.5,0,7.4-2.3,8.2-6.6c4.5-25.7,9-51.3,13.5-77c1.4-8.1,2.8-16.2,4.6-24.2
			c1.4-6.2,5.2-10.7,11.9-11.2c5.7-0.4,11.5-0.4,17.2-0.1c5.8,0.4,8.3,3.5,8.3,9.4c0,1.4,0,2.8-0.2,4.1c-3.1,17.6-6.2,35.1-9.3,52.7
			c-2.7,15.4-5.4,30.7-8,46.1c-0.8,4.7,1.2,6.8,5.9,6.8c6.4,0,12.7,0,19.1,0C736.2,226.4,742.5,226.4,748.7,226.4z M571.7,14.2
			c-2.2,0-4.3,0.7-5.9,2.3c-0.9,0.8-1.5,1.8-1.8,3.2c-1.4,8.5-3.1,16.9-4.4,25.4c-0.7,4.5,1.2,6.5,5.8,6.5c14,0.1,28,0.1,42,0
			c4.4,0,7-2.2,7.8-6.5c1.5-8.1,2.9-16.2,4.4-24.3c0,0,0-0.1,0-0.1c0.6-3.5-2.2-6.6-5.7-6.6L571.7,14.2z M573.1,226.4
			c6.7,0,9.3-2.1,10.4-8.6c8.5-48,16.9-96,25.4-144c0.8-4.4-1.3-7-5.8-7.1c-13-0.1-26-0.1-39,0c-4.5,0-7.4,2.7-8.2,7.1
			c-0.2,1.3-0.5,2.7-0.7,4c-5.4,30.4-10.8,60.9-16.1,91.3c-2.9,16.7-5.9,33.4-8.7,50.1c-0.8,4.9,1.2,7.1,6.1,7.1
			c6.4,0,12.7,0,19.1,0C561.4,226.4,567.2,226.4,573.1,226.4z M488.7,14.2c-2.7,0-5.4,1.2-6.9,3.5c-1,1.5-1.6,3.3-1.9,5.4
			c-1.2,8.5-2.9,16.9-4.4,25.4c-10,56.8-20.1,113.6-30.1,170.5c-0.9,4.9,1.2,7.4,6.1,7.4c12.7,0,25.5,0,38.2,0c5,0,7.6-2.1,8.5-7
			c2.3-12.5,4.5-25,6.7-37.5c5.6-31.8,11.2-63.6,16.9-95.4c3.8-21.6,7.7-43.2,11.5-64.8c0.5-2.6,0.3-4.9-1.6-6.5
			c-0.9-0.7-2.1-1.1-3.3-1.1L488.7,14.2z M402.2,14.2c-2.2,0-4.3,0.7-5.9,2.3c-0.9,0.8-1.5,1.8-1.8,3.2c-1.4,8.5-3.1,16.9-4.4,25.4
			c-0.7,4.5,1.2,6.5,5.8,6.5c14,0.1,28,0.1,42,0c4.4,0,7-2.3,7.8-6.5c1.5-8.1,2.9-16.2,4.4-24.3c0,0,0-0.1,0-0.1
			c0.6-3.5-2.2-6.6-5.7-6.6L402.2,14.2z M403.7,226.4c6.6,0,9.2-2.2,10.4-8.7c8.5-48,16.9-96,25.4-144c0.7-4.2-1.3-7-5.5-7
			c-13.1-0.1-26.2-0.1-39.4,0c-4.5,0-7.4,2.7-8.2,7.2c-0.2,1.3-0.5,2.7-0.7,4c-5.4,30.4-10.8,60.9-16.2,91.3
			c-2.9,16.6-5.8,33.1-8.7,49.7c-0.9,5.3,1.1,7.4,6.5,7.4c6.2,0,12.5,0,18.7,0C391.9,226.4,397.8,226.4,403.7,226.4z M315.9,105.9
			c1.2,0,24.2,0,34.3,0c4.9,0,7.4-2.1,8.3-6.9c1.3-7.1,2.6-14.2,3.8-21.4c1.8-10.4,1.3-11-9.2-11c-10.1,0-20.2,0-30.6,0
			c1.8-9.9,3.5-19.5,5.2-29.1c1.1-6.2-1.2-8.6-7.2-7.6c-12.9,2.2-25.8,4.4-38.7,6.6c-5.7,1-7.6,3-8.6,8.6
			c-2.4,13.6-4.8,27.2-7.2,40.9c-5.8,33-12.1,66-17.1,99.1c-3,19.8,4.4,36.1,26.9,41.3c18.3,4.3,36.7,2.2,55-0.9
			c3.6-0.6,5.5-3.1,6.1-6.7c1.2-7,2.4-14,3.7-21c1.1-6.4-0.3-8.2-6.9-8.2c-8.4-0.1-25.1-0.1-25.1-0.1s-2.8,0.3-5-2.2
			c-1.3-1.5-0.4-4.7-0.4-4.7L315.9,105.9z M199.7,14.2c-2.2,0-4.3,0.7-5.9,2.3c-0.9,0.8-1.5,1.8-1.8,3.2c-1.4,8.5-3.1,16.9-4.4,25.4
			c-0.7,4.5,1.2,6.5,5.8,6.5c14,0.1,28,0.1,42,0c4.4,0,7-2.3,7.8-6.5c1.5-8.1,2.9-16.2,4.4-24.3c0,0,0-0.1,0-0.1
			c0.6-3.5-2.2-6.6-5.7-6.6H199.7z M201.3,226.4c6.6,0,9.2-2.2,10.3-8.8c8.4-47.9,16.9-95.8,25.3-143.6c0.8-4.7-1.2-7.3-5.9-7.3
			c-12.9,0-25.7,0-38.6,0c-4.7,0-7.6,2.6-8.5,7.3c-5.5,30.7-10.9,61.4-16.3,92.1c-3.1,17.7-6.2,35.4-9.2,53.1
			c-0.9,5.1,1.1,7.3,6.2,7.3c6.2,0,12.5,0,18.7,0C189.3,226.4,195.3,226.4,201.3,226.4z M152.4,23.2c-16.7-3.9-33.7-4.1-50.6-2.1
			C87.5,22.8,74,26.9,62,35.2C45.1,46.9,35.3,63.5,28.7,82.4c-5.7,16.3-8,33.4-11.3,50.3c-2.7,13.8-4.3,27.6-2.2,41.6
			c2.4,16.1,9.3,29.6,22.2,39.8c11.8,9.3,25.6,13.4,40.2,14.4c15.5,1,30.9-0.3,46-4.3c4.9-1.3,7.6-3.7,8.4-9
			c1.5-10.1,3.6-20.1,5.4-30.2c1.1-6.3-0.2-7.7-6.5-7.4c-0.7,0-1.5,0.1-2.2,0.2c-11.9,1.3-23.9,2.3-35.9,2
			c-13.7-0.2-20.8-7.4-21.4-21.1c-0.5-11.2,1.8-22.1,3.9-33c2.3-12,3.8-24.2,8.4-35.6c6.3-15.5,15.2-21.4,31.9-21.3
			c11.8,0.1,23.4,1.4,35.1,2.3c5.3,0.4,6.8-0.9,7.8-6.3c1.2-6.5,3.4-18.7,4.4-25.3c0.8-5.8,1.5-8.6,0.1-11.8
			C161.5,24.8,156.6,24.2,152.4,23.2z"/>
	</defs>
	<clipPath id="SVGID_2_">
		<use xlink:href="#SVGID_1_"  overflow="visible"/>
	</clipPath>
	<g clip-path="url(#SVGID_2_)">
		<rect x="-16.2" y="-53.7" fill="#0C803D" width="1047" height="311.8"/>
		<polygon fill="#54B149" points="762.3,258.1 913.1,-53.7 813.6,-53.7 		"/>
		<polygon fill="#CDD745" points="768.3,258.1 880.3,123.3 850.8,258.1 		"/>
	</g>
</g>
<g>
</g>
<g>
</g>
<g>
</g>
<g>
</g>
<g>
</g>
<g>
</g>
</svg>
